<?xml version="1.0" standalone="no"?>
<!DOCTYPE svg PUBLIC "-//W3C//DTD SVG 20010904//EN"
 "http://www.w3.org/TR/2001/REC-SVG-20010904/DTD/svg10.dtd">
<svg version="1.0" xmlns="http://www.w3.org/2000/svg"
 width="683.000000pt" height="683.000000pt" viewBox="0 0 683.000000 683.000000"
 preserveAspectRatio="xMidYMid meet">
<metadata>
Created by potrace 1.14, written by Peter Selinger 2001-2017
</metadata>
<g transform="translate(0.000000,683.000000) scale(0.100000,-0.100000)"
fill="#000000" stroke="none">
<path d="M1300 6824 c-193 -37 -350 -171 -423 -360 l-22 -59 -3 -1899 -2
-1898 56 51 c112 103 277 179 429 198 33 5 180 8 328 7 l267 -1 0 1751 c0
1495 -2 1759 -15 1806 -62 236 -261 397 -500 405 -49 2 -101 1 -115 -1z"/>
<path d="M5258 6195 c-2 -2 -25 -5 -53 -8 -125 -15 -239 -75 -332 -176 -49
-53 -106 -163 -124 -236 -9 -38 -12 -433 -14 -1595 -1 -850 -5 -1565 -9 -1590
-46 -283 -270 -529 -549 -605 -62 -16 -63 -18 -65 -53 -2 -19 -5 -39 -8 -44
-3 -4 -7 -20 -10 -34 -9 -47 -56 -154 -96 -217 -111 -171 -282 -295 -483 -348
-77 -21 -103 -22 -725 -23 -355 -1 -659 2 -677 6 -42 11 -73 52 -73 95 0 38
25 88 49 100 9 4 318 10 686 14 735 6 692 2 826 69 73 38 181 140 224 214 74
126 100 285 71 424 -43 199 -198 369 -396 433 l-75 24 -1050 0 -1050 0 -70
-24 c-91 -31 -178 -87 -241 -153 -65 -70 -96 -119 -130 -208 l-29 -75 0 -475
c0 -261 3 -497 7 -525 43 -294 174 -557 383 -771 49 -50 124 -117 165 -147
131 -97 340 -193 505 -232 125 -30 223 -32 1447 -30 1121 1 1252 3 1331 19
319 60 605 229 808 476 47 57 129 174 129 184 0 3 13 27 28 53 53 90 121 286
137 398 3 23 8 52 11 65 4 14 8 1033 9 2265 1 1839 -1 2251 -12 2300 -28 125
-117 260 -218 331 -45 31 -133 69 -190 82 -49 11 -132 21 -137 17z"/>
<path d="M2610 4693 c-53 -8 -157 -46 -205 -75 -58 -35 -139 -115 -176 -173
-28 -43 -65 -135 -75 -187 -7 -33 -13 -1364 -7 -1384 3 -7 170 -10 541 -10
l537 1 1 665 c0 504 -3 682 -13 734 -36 195 -205 371 -398 417 -51 12 -160 18
-205 12z"/>
<path d="M3890 4689 c-19 -4 -48 -10 -65 -14 -106 -23 -252 -143 -318 -260
-66 -120 -67 -132 -67 -890 l0 -675 24 0 c31 0 136 -34 206 -66 209 -98 380
-312 431 -538 14 -65 12 -65 125 -10 154 74 269 235 289 405 12 99 8 1570 -4
1622 -46 201 -190 356 -382 413 -58 17 -186 24 -239 13z"/>
</g>
</svg>
